<?xml version="1.0" encoding="UTF-8" standalone="no"?>
<svg
   version="1.0"
   width="1248.000000pt"
   height="1280.000000pt"
   viewBox="0 0 1248.000000 1280.000000"
   preserveAspectRatio="xMidYMid meet"
   id="svg2420"
   sodipodi:docname="icon-filled.svg"
   inkscape:version="1.1.2 (0a00cf5339, 2022-02-04, custom)"
   xmlns:inkscape="http://www.inkscape.org/namespaces/inkscape"
   xmlns:sodipodi="http://sodipodi.sourceforge.net/DTD/sodipodi-0.dtd"
   xmlns="http://www.w3.org/2000/svg"
   xmlns:svg="http://www.w3.org/2000/svg">
  <defs
     id="defs2424" />
  <sodipodi:namedview
     id="namedview2422"
     pagecolor="#ffffff"
     bordercolor="#666666"
     borderopacity="1.0"
     inkscape:pageshadow="2"
     inkscape:pageopacity="0.0"
     inkscape:pagecheckerboard="0"
     inkscape:document-units="pt"
     showgrid="false"
     inkscape:zoom="0.38155677"
     inkscape:cx="551.68724"
     inkscape:cy="933.01974"
     inkscape:window-width="1920"
     inkscape:window-height="1048"
     inkscape:window-x="0"
     inkscape:window-y="32"
     inkscape:window-maximized="0"
     inkscape:current-layer="g2418" />
  <metadata
     id="metadata2412">
Created by potrace 1.15, written by Peter Selinger 2001-2017
</metadata>
  <g
     transform="matrix(0.0513598,0,0,-0.0513598,315.71896,733.78989)"
     fill="#000000"
     stroke="none"
     id="g2418">
    <path
       style="fill:#409eff;fill-opacity:1;stroke:#409eff;stroke-width:388.515;stroke-miterlimit:4;stroke-dasharray:none;stroke-opacity:1"
       d="m -2409.1823,-4178.687 c -25.612,10.3876 -73.4311,50.8124 -106.2642,89.8327 -119.7444,142.3078 -60.6435,415.9502 100.7646,466.5504 40.9413,12.8347 205.3115,38.8816 365.2674,57.8818 733.3233,87.1079 1074.01882,292.3318 1465.56178,882.8062 605.859747,913.6801 1043.53,2937.81138 1330.80974,6154.709 74.37694,832.8618 107.20178,1067.494 200.96334,1436.4978 266.82034,1050.0878 818.19874,2005.4889 1489.52114,2580.9649 628.6532,538.8966 1300.7502,822.7476 2148.9123,907.5627 l 259.9059,25.9897 15.5174,225.8239 c 57.0302,829.9553 307.035,1422.1619 672.7284,1593.5379 137.043,64.223 237.4175,65.933 369.1289,6.284 352.4666,-159.624 597.9052,-759.6796 641.4155,-1568.1502 l 14.0609,-261.2653 170.0264,-14.027 c 910.308,-75.1051 1639.8853,-372.2351 2280.0225,-928.5674 738.348,-641.6914 1347.7863,-1771.649 1538.5013,-2852.5217 17.369,-98.4342 62.021,-511.1875 99.226,-917.2292 341.476,-3726.772305 792.291,-5681.096 1522.449,-6599.9209 338.437,-425.887 711.308,-611.1917 1374.137,-682.9015 135.346,-14.6432 273.6,-40.7317 307.227,-57.9751 83.337,-42.7307 129.015,-140.4166 129.015,-275.8978 0,-97.8087 -10.47,-124.7201 -76.581,-196.8612 l -76.58,-83.5644 -8094.5789,-4.223 c -4452.0243,-2.3231 -8115.5453,4.2757 -8141.1574,14.6637 z"
       id="path8481" />
    <path
       style="fill:#409eff;fill-opacity:1;stroke:#409eff;stroke-width:388.515;stroke-miterlimit:4;stroke-dasharray:none;stroke-opacity:1"
       d="m 5448.5936,-6334.2959 c -829.9356,150.649 -1424.1605,841.503 -1424.1605,1655.7496 0,119.0225 11.4569,273.453 25.46,343.1789 l 25.4598,126.7743 h 1627.6017 1627.6016 l 14.286,-56.9185 c 74.0012,-294.8453 54.9783,-648.7764 -50.9609,-948.1476 -92.3115,-260.8615 -192.2144,-414.2079 -417.9256,-641.4965 -171.152,-172.3478 -234.6879,-219.5496 -413.8777,-307.4754 -116.4273,-57.1296 -272.089,-119.6438 -345.9149,-138.9207 -162.0715,-42.3194 -518.5043,-59.8024 -667.5695,-32.7441 z"
       id="path9224" />
  </g>
</svg>
