<?xml version="1.0" encoding="UTF-8" standalone="no"?>
<svg
   version="1.0"
   width="1248.000000pt"
   height="1280.000000pt"
   viewBox="0 0 1248.000000 1280.000000"
   preserveAspectRatio="xMidYMid meet"
   id="svg2420"
   sodipodi:docname="icon.svg"
   inkscape:version="1.1.2 (0a00cf5339, 2022-02-04, custom)"
   xmlns:inkscape="http://www.inkscape.org/namespaces/inkscape"
   xmlns:sodipodi="http://sodipodi.sourceforge.net/DTD/sodipodi-0.dtd"
   xmlns="http://www.w3.org/2000/svg"
   xmlns:svg="http://www.w3.org/2000/svg">
  <defs
     id="defs2424" />
  <sodipodi:namedview
     id="namedview2422"
     pagecolor="#ffffff"
     bordercolor="#666666"
     borderopacity="1.0"
     inkscape:pageshadow="2"
     inkscape:pageopacity="0.0"
     inkscape:pagecheckerboard="0"
     inkscape:document-units="pt"
     showgrid="false"
     inkscape:zoom="0.38155677"
     inkscape:cx="551.68724"
     inkscape:cy="933.01975"
     inkscape:window-width="1920"
     inkscape:window-height="1048"
     inkscape:window-x="0"
     inkscape:window-y="32"
     inkscape:window-maximized="0"
     inkscape:current-layer="g2418" />
  <metadata
     id="metadata2412">
Created by potrace 1.15, written by Peter Selinger 2001-2017
</metadata>
  <g
     transform="matrix(0.0513598,0,0,-0.0513598,315.71896,733.78989)"
     fill="#000000"
     stroke="none"
     id="g2418">
    <path
       style="fill:none;fill-opacity:1;stroke:#409eff;stroke-width:388.515;stroke-miterlimit:4;stroke-dasharray:none;stroke-opacity:1"
       d="m -2263.1538,-1024.4714 c -25.612,10.3876 -73.4311,50.81242 -106.2642,89.83276 -119.7444,142.3079 -60.6435,415.95048 100.7646,466.55069 40.9413,12.83474 205.3115,38.88167 365.2674,57.88183 733.3233,87.10801 1074.01892,292.33205 1465.56188,882.80689 605.85975,913.68043 1043.53,2937.81083 1330.80974,6154.70793 74.37694,832.8618 107.20178,1067.494 200.96328,1436.4978 266.8203,1050.0878 818.1987,2005.4895 1489.5211,2580.9715 628.6532,538.902 1300.7502,822.756 2148.9123,907.572 l 259.9059,25.99 15.5174,225.826 c 57.0302,829.964 307.035,1422.176 672.7284,1593.552 137.043,64.223 237.4175,65.933 369.1289,6.284 352.4666,-159.624 597.9052,-759.685 641.4155,-1568.164 l 14.0609,-261.268 170.0264,-14.027 c 910.308,-75.106 1639.8853,-372.239 2280.0225,-928.577 738.348,-641.6977 1347.7878,-1771.6553 1538.5028,-2852.528 17.369,-98.4342 62.021,-511.1875 99.226,-917.2292 341.476,-3726.7716 792.291,-5681.0946 1522.449,-6599.92003 338.437,-425.88729 711.308,-611.19206 1374.137,-682.90194 135.346,-14.64322 273.6,-40.73171 307.227,-57.97519 83.337,-42.7307 129.015,-140.41665 129.015,-275.89794 0,-97.80878 -10.47,-124.7202 -76.581,-196.86136 l -76.58,-83.56444 -8094.5804,-4.223 c -4452.0243,-2.3231 -8115.5453,4.2757 -8141.1574,14.6637 z"
       id="path8481" />
    <path
       style="fill:none;fill-opacity:1;stroke:#409eff;stroke-width:388.515;stroke-miterlimit:4;stroke-dasharray:none;stroke-opacity:1"
       d="m 5594.6221,-3180.0803 c -829.9356,150.649 -1424.1605,841.503 -1424.1605,1655.7496 0,119.0225 11.4569,273.453 25.46,343.1789 l 25.4598,126.7743 h 1627.6017 1627.6016 l 14.286,-56.9185 c 74.0012,-294.8453 54.9783,-648.7764 -50.9609,-948.1476 -92.3115,-260.8615 -192.2144,-414.2079 -417.9256,-641.4965 -171.152,-172.3478 -234.6879,-219.5496 -413.8777,-307.4754 -116.4273,-57.1296 -272.089,-119.6438 -345.9149,-138.9207 -162.0715,-42.3194 -518.5043,-59.8024 -667.5695,-32.7441 z"
       id="path9224" />
    <path
       style="fill:none;stroke:#409eff;stroke-width:388.515;stroke-linecap:butt;stroke-linejoin:miter;stroke-miterlimit:4;stroke-dasharray:none;stroke-opacity:1"
       d="m -1350.21,-9262.4882 h 3505.4204 l 1230.9499,2096.9221 4750.3589,1272.8547"
       id="path9671"
       sodipodi:nodetypes="cccc" />
    <path
       style="fill:none;stroke:#409eff;stroke-width:388.515;stroke-linecap:butt;stroke-linejoin:miter;stroke-miterlimit:4;stroke-dasharray:none;stroke-opacity:1"
       d="M 6462.9443,-6391.8665 8154.8116,-9322.268 h 1683.8582"
       id="path9912"
       sodipodi:nodetypes="ccc" />
    <path
       style="fill:none;stroke:#409eff;stroke-width:388.515;stroke-linecap:butt;stroke-linejoin:miter;stroke-miterlimit:4;stroke-dasharray:none;stroke-opacity:1"
       d="m 6462.9447,-6391.8665 6023.5513,3088.3339"
       id="path9914"
       sodipodi:nodetypes="cc" />
    <circle
       style="fill:#ffffff;fill-opacity:1;stroke:#409eff;stroke-width:388.515;stroke-miterlimit:4;stroke-dasharray:none;stroke-opacity:1"
       id="path9562"
       cx="10010.41"
       cy="5538.2378"
       r="1895.0306"
       transform="scale(1,-1)" />
  </g>
</svg>
